<?xml version="1.0" standalone="no"?>
<!DOCTYPE svg PUBLIC "-//W3C//DTD SVG 20010904//EN"
 "http://www.w3.org/TR/2001/REC-SVG-20010904/DTD/svg10.dtd">
<svg version="1.0" xmlns="http://www.w3.org/2000/svg"
 width="624.000000pt" height="125.000000pt" viewBox="0 0 624.000000 125.000000"
 preserveAspectRatio="xMidYMid meet">
<metadata>
Created by potrace 1.15, written by Peter Selinger 2001-2017
</metadata>
<g transform="translate(0.000000,125.000000) scale(0.100000,-0.100000)"
fill="#000000" stroke="none">
<path d="M0 625 l0 -625 3120 0 3120 0 0 625 0 625 -3120 0 -3120 0 0 -625z
m674 487 c3 -5 1 -25 -5 -45 l-10 -37 -112 0 -112 0 -63 -307 c-35 -170 -66
-316 -68 -325 -4 -14 -16 -18 -55 -18 -48 0 -49 1 -43 25 3 13 34 159 68 322
l61 298 -112 3 c-62 1 -113 6 -113 10 0 4 5 24 11 45 l10 37 269 0 c148 0 271
-4 274 -8z m1299 1 c3 -6 -68 -324 -106 -475 -7 -25 -12 -28 -47 -28 -22 0
-40 4 -40 8 0 9 64 367 81 450 l10 52 49 0 c27 0 51 -3 53 -7z m761 -30 c-3
-21 -9 -41 -13 -45 -3 -4 -56 -9 -116 -10 l-110 -3 -65 -317 c-37 -175 -69
-320 -72 -323 -3 -4 -26 -5 -50 -3 l-44 3 66 320 66 320 -113 3 -113 3 6 27
c15 68 -13 62 290 62 l275 0 -7 -37z m1306 30 c-1 -5 -27 -118 -59 -253 l-57
-245 -42 -3 c-23 -2 -42 -1 -42 2 0 3 20 115 45 249 25 134 45 247 45 250 0 4
25 7 55 7 30 0 55 -3 55 -7z m756 -24 c-3 -17 -6 -38 -6 -45 0 -10 -27 -14
-117 -16 l-116 -3 -66 -320 -66 -320 -48 -3 c-33 -2 -47 1 -47 10 0 12 113
561 126 615 6 22 4 22 -108 25 l-114 3 9 43 8 42 276 0 276 0 -7 -31z m1299
-1 c-4 -18 -30 -132 -58 -253 l-52 -220 -44 -3 c-41 -3 -43 -2 -38 20 3 13 24
124 47 247 23 124 43 228 46 233 3 4 28 8 55 8 l50 0 -6 -32z m-5184 -179 c19
-7 44 -21 56 -31 21 -20 21 -20 32 1 9 16 21 21 50 21 l37 0 -42 -202 c-54
-254 -54 -248 -9 -248 33 0 35 -2 29 -27 -11 -52 -12 -53 -63 -53 -42 0 -53 4
-70 26 -12 15 -21 33 -21 42 0 9 -14 2 -39 -21 -91 -82 -208 -70 -252 26 -67
149 38 418 180 462 58 17 70 18 112 4z m663 -14 c15 -10 36 -36 47 -57 36 -71
23 -234 -27 -330 -61 -117 -203 -179 -298 -129 -22 11 -42 19 -44 16 -3 -2
-17 -64 -31 -137 l-27 -133 -47 -3 c-26 -2 -47 0 -47 4 0 9 150 733 156 757 4
12 16 17 45 17 35 0 39 -2 39 -26 l0 -25 31 22 c71 51 148 59 203 24z m1395
15 c19 -5 44 -19 57 -31 l22 -21 11 21 c16 28 96 32 87 4 -9 -30 -86 -402 -86
-418 0 -11 11 -15 36 -15 35 0 35 -1 29 -32 -10 -47 -11 -48 -65 -48 -41 0
-52 4 -69 26 -12 15 -21 33 -21 42 0 9 -14 2 -39 -21 -67 -60 -149 -71 -211
-27 -101 72 -68 342 58 463 59 58 123 77 191 57z m647 -6 c154 -73 100 -422
-80 -517 -54 -28 -150 -30 -190 -4 -15 10 -29 17 -32 15 -2 -2 -16 -65 -31
-139 l-29 -134 -47 -3 c-26 -2 -47 -2 -47 0 0 2 36 176 80 387 44 211 80 385
80 387 0 2 18 4 40 4 38 0 40 -1 40 -32 l0 -32 29 28 c30 29 90 55 129 56 13
0 39 -7 58 -16z m1413 6 c19 -5 44 -19 57 -31 l22 -21 11 21 c9 16 21 21 52
21 36 0 39 -2 34 -22 -36 -156 -85 -411 -80 -418 3 -6 19 -10 36 -10 31 0 32
-2 23 -49 -6 -29 -9 -31 -53 -31 -52 0 -91 21 -91 51 0 10 -2 19 -4 19 -2 0
-27 -15 -55 -34 -98 -66 -191 -54 -235 30 -17 31 -21 57 -20 120 2 223 151
398 303 354z m645 -4 c101 -42 124 -212 51 -375 -45 -99 -140 -171 -227 -171
-32 0 -88 19 -108 36 -14 12 -19 -4 -45 -131 l-28 -145 -49 0 c-45 0 -48 2
-43 22 11 46 155 743 155 750 0 5 18 8 40 8 38 0 40 -1 40 -32 l0 -32 29 28
c30 29 90 55 129 56 12 0 37 -6 56 -14z"/>
<path d="M836 830 c-65 -20 -118 -104 -138 -219 -23 -134 22 -194 115 -153 70
31 105 92 137 240 l19 84 -26 24 c-14 13 -32 24 -39 24 -7 0 -18 2 -26 4 -7 2
-26 0 -42 -4z"/>
<path d="M1448 829 c-78 -21 -134 -110 -163 -257 -19 -96 -15 -106 47 -122 53
-15 97 1 142 50 60 66 95 227 65 294 -14 30 -54 46 -91 35z"/>
<path d="M2896 829 c-63 -18 -108 -87 -132 -202 -25 -120 0 -182 72 -180 78 2
140 88 174 242 16 73 18 96 9 108 -26 31 -80 45 -123 32z"/>
<path d="M3505 829 c-40 -11 -94 -64 -117 -116 -10 -24 -28 -84 -39 -134 -22
-104 -20 -113 43 -129 106 -29 204 81 216 241 8 111 -28 158 -103 138z"/>
<path d="M4965 833 c-77 -18 -135 -122 -143 -254 -5 -84 -4 -88 22 -114 22
-22 33 -26 58 -21 41 8 91 47 118 90 24 40 75 230 66 251 -11 30 -80 57 -121
48z"/>
<path d="M5564 828 c-36 -9 -99 -74 -120 -123 -7 -18 -22 -75 -34 -125 -23
-106 -20 -114 41 -130 114 -31 208 75 217 247 6 118 -22 153 -104 131z"/>
</g>
</svg>
